<svg width="329" height="65" viewBox="0 0 329 65" fill="none" xmlns="http://www.w3.org/2000/svg">
<path d="M75.648 27.144L75.472 28.772L76.44 27.54L87 15.616H95.272L81.896 30.136L95.316 48H87.22L77.232 34.184L75.648 35.768V48H69.18V15.616H75.648V27.144ZM107.964 48.528C105.617 48.528 103.623 48.088 101.98 47.208C100.367 46.328 99.1346 45.1107 98.2839 43.556C97.4333 42.0013 97.0079 40.212 97.0079 38.188C97.0079 36.252 97.5066 34.5067 98.5039 32.952C99.5013 31.3973 100.836 30.1653 102.508 29.256C104.18 28.3173 106.043 27.848 108.096 27.848C110.853 27.848 113.112 28.6547 114.872 30.268C116.661 31.852 117.82 34.1547 118.348 37.176L103.388 41.928L102.024 38.584L112.848 34.932L111.572 35.504C111.337 34.7413 110.912 34.0813 110.296 33.524C109.709 32.9373 108.815 32.644 107.612 32.644C106.703 32.644 105.896 32.864 105.192 33.304C104.517 33.7147 103.989 34.316 103.608 35.108C103.256 35.8707 103.08 36.78 103.08 37.836C103.08 39.0387 103.3 40.0507 103.74 40.872C104.18 41.664 104.781 42.2653 105.544 42.676C106.307 43.0867 107.157 43.292 108.096 43.292C108.771 43.292 109.416 43.1747 110.032 42.94C110.677 42.7053 111.308 42.3973 111.924 42.016L114.652 46.592C113.625 47.1787 112.511 47.648 111.308 48C110.135 48.352 109.02 48.528 107.964 48.528ZM132.284 48.528C129.938 48.528 127.943 48.088 126.3 47.208C124.687 46.328 123.455 45.1107 122.604 43.556C121.754 42.0013 121.328 40.212 121.328 38.188C121.328 36.252 121.827 34.5067 122.824 32.952C123.822 31.3973 125.156 30.1653 126.828 29.256C128.5 28.3173 130.363 27.848 132.416 27.848C135.174 27.848 137.432 28.6547 139.192 30.268C140.982 31.852 142.14 34.1547 142.668 37.176L127.708 41.928L126.344 38.584L137.168 34.932L135.892 35.504C135.658 34.7413 135.232 34.0813 134.616 33.524C134.03 32.9373 133.135 32.644 131.932 32.644C131.023 32.644 130.216 32.864 129.512 33.304C128.838 33.7147 128.31 34.316 127.928 35.108C127.576 35.8707 127.4 36.78 127.4 37.836C127.4 39.0387 127.62 40.0507 128.06 40.872C128.5 41.664 129.102 42.2653 129.864 42.676C130.627 43.0867 131.478 43.292 132.416 43.292C133.091 43.292 133.736 43.1747 134.352 42.94C134.998 42.7053 135.628 42.3973 136.244 42.016L138.972 46.592C137.946 47.1787 136.831 47.648 135.628 48C134.455 48.352 133.34 48.528 132.284 48.528ZM159.201 48.528C158.057 48.528 156.927 48.3227 155.813 47.912C154.727 47.472 153.818 46.856 153.085 46.064L153.261 44.26V57.24H147.145V28.332H152.425L153.305 32.072L152.821 30.752C153.818 29.9013 154.933 29.1973 156.165 28.64C157.397 28.0827 158.819 27.804 160.433 27.804C162.222 27.804 163.821 28.2293 165.229 29.08C166.637 29.9013 167.737 31.104 168.529 32.688C169.35 34.2427 169.761 36.12 169.761 38.32C169.761 40.4907 169.306 42.3387 168.397 43.864C167.487 45.3893 166.241 46.548 164.657 47.34C163.073 48.132 161.254 48.528 159.201 48.528ZM157.969 43.688C158.966 43.688 159.875 43.468 160.697 43.028C161.547 42.588 162.222 41.972 162.721 41.18C163.249 40.3587 163.513 39.4347 163.513 38.408C163.513 37.3227 163.278 36.384 162.809 35.592C162.369 34.7707 161.753 34.14 160.961 33.7C160.198 33.2307 159.347 32.996 158.409 32.996C157.587 32.996 156.854 33.1133 156.209 33.348C155.593 33.5533 155.035 33.876 154.537 34.316C154.067 34.7267 153.657 35.2547 153.305 35.9V40.608C153.539 41.224 153.877 41.7667 154.317 42.236C154.757 42.7053 155.285 43.072 155.901 43.336C156.546 43.5707 157.235 43.688 157.969 43.688ZM171.962 48L186.57 14.34H186.922L201.53 48H194.138L184.81 24.328L189.43 21.16L178.254 48H171.962ZM181.95 36.296H191.674L193.918 41.664H179.97L181.95 36.296ZM205.238 13.284H211.398V48H205.238V13.284ZM217.742 28.772H223.902V48H217.742V28.772ZM217.61 21.952C217.61 21.0427 217.962 20.2947 218.666 19.708C219.4 19.1213 220.177 18.828 220.998 18.828C221.82 18.828 222.568 19.1213 223.242 19.708C223.946 20.2947 224.298 21.0427 224.298 21.952C224.298 22.8613 223.946 23.6093 223.242 24.196C222.568 24.7533 221.82 25.032 220.998 25.032C220.177 25.032 219.4 24.7533 218.666 24.196C217.962 23.6093 217.61 22.8613 217.61 21.952ZM239.046 48.396L227.518 28.772H234.822L241.378 42.06L237.594 41.928L243.27 28.772H250.134L239.222 48.396H239.046ZM262.566 48.528C260.219 48.528 258.224 48.088 256.582 47.208C254.968 46.328 253.736 45.1107 252.886 43.556C252.035 42.0013 251.61 40.212 251.61 38.188C251.61 36.252 252.108 34.5067 253.106 32.952C254.103 31.3973 255.438 30.1653 257.11 29.256C258.782 28.3173 260.644 27.848 262.698 27.848C265.455 27.848 267.714 28.6547 269.474 30.268C271.263 31.852 272.421 34.1547 272.95 37.176L257.99 41.928L256.626 38.584L267.45 34.932L266.174 35.504C265.939 34.7413 265.514 34.0813 264.898 33.524C264.311 32.9373 263.416 32.644 262.214 32.644C261.304 32.644 260.498 32.864 259.794 33.304C259.119 33.7147 258.591 34.316 258.21 35.108C257.858 35.8707 257.682 36.78 257.682 37.836C257.682 39.0387 257.902 40.0507 258.342 40.872C258.782 41.664 259.383 42.2653 260.146 42.676C260.908 43.0867 261.759 43.292 262.698 43.292C263.372 43.292 264.018 43.1747 264.634 42.94C265.279 42.7053 265.91 42.3973 266.526 42.016L269.254 46.592C268.227 47.1787 267.112 47.648 265.91 48C264.736 48.352 263.622 48.528 262.566 48.528Z" fill="#E8EAED"/>
<path d="M20.3125 16.25C19.184 16.25 18.2248 16.645 17.4349 17.4349C16.645 18.2248 16.25 19.184 16.25 20.3125C16.25 21.441 16.645 22.4002 17.4349 23.1901C18.2248 23.98 19.184 24.375 20.3125 24.375C21.441 24.375 22.4002 23.98 23.1901 23.1901C23.98 22.4002 24.375 21.441 24.375 20.3125C24.375 19.184 23.98 18.2248 23.1901 17.4349C22.4002 16.645 21.441 16.25 20.3125 16.25ZM20.3125 43.3333C19.184 43.3333 18.2248 43.7283 17.4349 44.5182C16.645 45.3082 16.25 46.2674 16.25 47.3958C16.25 48.5243 16.645 49.4835 17.4349 50.2734C18.2248 51.0634 19.184 51.4583 20.3125 51.4583C21.441 51.4583 22.4002 51.0634 23.1901 50.2734C23.98 49.4835 24.375 48.5243 24.375 47.3958C24.375 46.2674 23.98 45.3082 23.1901 44.5182C22.4002 43.7283 21.441 43.3333 20.3125 43.3333ZM10.8333 8.125H54.1667C54.934 8.125 55.5773 8.38455 56.0964 8.90365C56.6155 9.42274 56.875 10.066 56.875 10.8333V29.7917C56.875 30.559 56.6155 31.2023 56.0964 31.7214C55.5773 32.2404 54.934 32.5 54.1667 32.5H10.8333C10.066 32.5 9.42274 32.2404 8.90365 31.7214C8.38455 31.2023 8.125 30.559 8.125 29.7917V10.8333C8.125 10.066 8.38455 9.42274 8.90365 8.90365C9.42274 8.38455 10.066 8.125 10.8333 8.125ZM13.5417 13.5417V27.0833H51.4583V13.5417H13.5417ZM10.8333 35.2083H54.1667C54.934 35.2083 55.5773 35.4679 56.0964 35.987C56.6155 36.5061 56.875 37.1493 56.875 37.9167V56.875C56.875 57.6424 56.6155 58.2856 56.0964 58.8047C55.5773 59.3238 54.934 59.5833 54.1667 59.5833H10.8333C10.066 59.5833 9.42274 59.3238 8.90365 58.8047C8.38455 58.2856 8.125 57.6424 8.125 56.875V37.9167C8.125 37.1493 8.38455 36.5061 8.90365 35.987C9.42274 35.4679 10.066 35.2083 10.8333 35.2083ZM13.5417 40.625V54.1667H51.4583V40.625H13.5417Z" fill="#E8EAED"/>
<g clip-path="url(#clip0_2_7)">
<path d="M31.6356 26.0461C31.3984 26.0461 31.1862 25.9774 30.9989 25.8401C30.8116 25.7028 30.6743 25.528 30.5869 25.3157L28.8639 20.8023H25.6427V19.3041H29.9127L31.6356 23.8737L35.0816 14.7907C35.169 14.5784 35.3063 14.4036 35.4936 14.2663C35.6809 14.129 35.8931 14.0603 36.1303 14.0603C36.3675 14.0603 36.5798 14.129 36.7671 14.2663C36.9543 14.4036 37.0917 14.5784 37.1791 14.7907L38.902 19.3041H42.1232V20.8023H37.8533L36.1303 16.2327L32.6844 25.3157C32.597 25.528 32.4597 25.7028 32.2724 25.8401C32.0851 25.9774 31.8729 26.0461 31.6356 26.0461Z" fill="#E8EAED"/>
</g>
<g clip-path="url(#clip1_2_7)">
<path d="M31.6356 53.7057C31.3984 53.7057 31.1862 53.637 30.9989 53.4997C30.8116 53.3623 30.6743 53.1875 30.5869 52.9753L28.8639 48.4619H25.6427V46.9636H29.9127L31.6356 51.5332L35.0816 42.4502C35.169 42.238 35.3063 42.0632 35.4936 41.9259C35.6809 41.7885 35.8931 41.7198 36.1303 41.7198C36.3675 41.7198 36.5798 41.7885 36.7671 41.9259C36.9543 42.0632 37.0917 42.238 37.1791 42.4502L38.902 46.9636H42.1232V48.4619H37.8533L36.1303 43.8923L32.6844 52.9753C32.597 53.1875 32.4597 53.3623 32.2724 53.4997C32.0851 53.637 31.8729 53.7057 31.6356 53.7057Z" fill="#E8EAED"/>
</g>
<defs>
<clipPath id="clip0_2_7">
<rect width="17.9787" height="17.9787" fill="white" transform="translate(24.8936 11.0638)"/>
</clipPath>
<clipPath id="clip1_2_7">
<rect width="17.9787" height="17.9787" fill="white" transform="translate(24.8936 38.7234)"/>
</clipPath>
</defs>
</svg>
